# xmcd
# Copyright (C) 1995-1998 Ti Kan
#
# Track frame offsets:
#       150
#       6357
#       21246
#       39987
#       57566
#       81919
#       102065
#       102672
#       118116
#       139580
#       157685
#       169212
#       191503
#       192304
#       218349
#       239093
#       256203
#       275121
#       277673
#       290104
#       310415
#       326594
#
# Disc length: 4411 seconds
#
# Revision: 0
# Processed by: cddbd v1.5.1PL2 Copyright (c) Steve Scherf et al.
# Submitted via: CD-Transfer v1.0
#
DISCID=42113916
DTITLE=The Notorious B.I.G. - 
DYEAR=05
DGENRE=Blues
TTITLE0=B.I.G. live in Jamaica
TTITLE1=It Has Been Said
TTITLE2=Spit Your Game
TTITLE3=Whatchu Want
TTITLE4=Get Your Grind On
TTITLE5=Living The Life
TTITLE6=The Greatest Rapper
TTITLE7=1970 Semothin
TTITLE8=Nasty Girl
TTITLE9=Living In Pain
TTITLE10=I'm With Whateva
TTITLE11=Beef
TTITLE12=My Dad
TTITLE13=Hustler's story
TTITLE14=Breakin' Old Habits
TTITLE15=Ultimate Rush
TTITLE16=Mi Casa
TTITLE17=Little Homie
TTITLE18=Hold Ya Head
TTITLE19=Just A Memory
TTITLE20=Wake Up
TTITLE21=Love Is Everlasting
EXTD=
EXTT0=
EXTT1=
EXTT2=
EXTT3=
EXTT4=
EXTT5=
EXTT6=
EXTT7=
EXTT8=
EXTT9=
EXTT10=
EXTT11=
EXTT12=
EXTT13=
EXTT14=
EXTT15=
EXTT16=
EXTT17=
EXTT18=
EXTT19=
EXTT20=
EXTT21=
PLAYORDER=
